<?xml version="1.0" encoding="UTF-8" standalone="no" ?>
<!DOCTYPE svg PUBLIC "-//W3C//DTD SVG 1.1//EN" "http://www.w3.org/Graphics/SVG/1.1/DTD/svg11.dtd">
<svg xmlns="http://www.w3.org/2000/svg" xmlns:xlink="http://www.w3.org/1999/xlink" version="1.1" width="1280" height="1024" viewBox="0 0 1280 1024" xml:space="preserve">
<desc>Created with Fabric.js 5.3.0</desc>
<defs>
</defs>
<g transform="matrix(1 0 0 1 640 512)" id="background-logo"  >
<rect style="stroke: none; stroke-width: 0; stroke-dasharray: none; stroke-linecap: butt; stroke-dashoffset: 0; stroke-linejoin: miter; stroke-miterlimit: 4; fill: rgb(255,255,255); fill-opacity: 0; fill-rule: nonzero; opacity: 1;"  paint-order="stroke"  x="-640" y="-512" rx="0" ry="0" width="1280" height="1024" />
</g>
<g transform="matrix(2.5608304297379108 0 0 2.5608304297379108 640.2531728975753 312.7777908765179)" id="logo-logo"  >
<g style=""  paint-order="stroke"   >
		<g transform="matrix(-0.754665259892891 0 0 0.754665259892891 -5.324467501554068 3.266731664323629)"  >
<g style=""  paint-order="stroke"   >
		<g transform="matrix(1 0 0 1 0 0)"  >
<linearGradient id="SVGID_13_1437712" gradientUnits="userSpaceOnUse" gradientTransform="matrix(1 0 0 1 0.02173195473680778 0)"  x1="73.82245923775193" y1="0" x2="73.82245923775187" y2="255.61260776099354">
<stop offset="25.5%" style="stop-color:rgb(191,11,214);stop-opacity: 1"/>
<stop offset="100%" style="stop-color:rgb(240,248,15);stop-opacity: 1"/>
</linearGradient>
<path style="stroke: none; stroke-width: 1; stroke-dasharray: none; stroke-linecap: butt; stroke-dashoffset: 0; stroke-linejoin: miter; stroke-miterlimit: 4; fill: url(#SVGID_13_1437712); fill-rule: nonzero; opacity: 1;"  paint-order="stroke"  transform=" translate(-73.84419119248871, -127.80630388049677)" d="M 134.3 45.6 C 134.60000000000002 44 136.9 44.1 137.20000000000002 45.6 C 149.60000000000002 115.80000000000001 81.70000000000002 115.1 76.00000000000001 116.6 C 72.10000000000001 117.6 69.20000000000002 130.6 67.70000000000002 138.9 C 66.90000000000002 143.3 68.00000000000001 147.9 70.70000000000002 151.4 C 79.30000000000001 162.70000000000002 86.00000000000001 168.6 97.90000000000002 174.8 C 110.20000000000002 181.20000000000002 134.3 180 145.90000000000003 179 C 147.60000000000002 178.8 148.40000000000003 181.1 146.80000000000004 182.1 C 135.90000000000003 188.6 115.80000000000004 196.29999999999998 94.70000000000005 194 C 75.40000000000005 192 53.00000000000004 177 43.30000000000005 170 C 40.100000000000044 167.6 35.50000000000005 168.6 33.60000000000005 172.1 C 25.10000000000005 187.6 16.700000000000053 227.8 12.200000000000053 252.39999999999998 C 11.400000000000052 256.7 5.100000000000053 256.7 4.400000000000053 252.29999999999998 C -8.3 180 9.7 121.1 19.5 96 C 22.7 88.1 22.3 79 18.2 71.5 C -17.4 6.3 63.5 0.5 82.4 0 C 83.30000000000001 0 83.5 1.2 82.7 1.5 C 69.3 7.5 19.700000000000003 23.4 33.5 47.3 C 45.4 67.8 61.3 88.69999999999999 93.4 89.3 C 128.3 89.9 131.4 60.3 134.3 45.6 z" stroke-linecap="round" />
</g>
		<g transform="matrix(1 0 0 1 5.755808807511286 -76.80630388049677)"  >
<linearGradient id="SVGID_15_1437713" gradientUnits="userSpaceOnUse" gradientTransform="matrix(1 0 0 1 -23.6 -23.6)"  x1="23.60000000000001" y1="0" x2="23.599999999999994" y2="47.2">
<stop offset="0%" style="stop-color:rgb(135,17,191);stop-opacity: 1"/>
<stop offset="100%" style="stop-color:rgb(244,11,245);stop-opacity: 1"/>
</linearGradient>
<circle style="stroke: none; stroke-width: 1; stroke-dasharray: none; stroke-linecap: butt; stroke-dashoffset: 0; stroke-linejoin: miter; stroke-miterlimit: 4; fill: url(#SVGID_15_1437713); fill-rule: nonzero; opacity: 1;"  paint-order="stroke"  cx="0" cy="0" r="23.6" />
</g>
</g>
</g>
		<g transform="matrix(-0.44503635831592764 0.3353589502519655 0.3353589502519655 0.44503635831592764 9.063752500383657 3.266731664323629)"  >
<g style=""  paint-order="stroke"   >
		<g transform="matrix(1 0 0 1 0 0)"  >
<linearGradient id="SVGID_33_14_14_16_1437714" gradientUnits="userSpaceOnUse" gradientTransform="matrix(1 0 0 1 0.00000424928434483718 0)"  x1="124.99999774920076" y1="0" x2="124.99999774920067" y2="197.5975531677414">
<stop offset="0%" style="stop-color:rgb(230,255,33);stop-opacity: 1"/>
<stop offset="100%" style="stop-color:rgb(188,63,229);stop-opacity: 1"/>
</linearGradient>
<path style="stroke: none; stroke-width: 1; stroke-dasharray: none; stroke-linecap: butt; stroke-dashoffset: 0; stroke-linejoin: miter; stroke-miterlimit: 4; fill: url(#SVGID_33_14_14_16_1437714); fill-rule: nonzero; opacity: 1;"  paint-order="stroke"  transform=" translate(-125.00000199848506, -98.7987765838707)" d="M 197.74875 0 C 223.21018 12.9202 215.12119 39.20477 195.23496 52.9259 C 167.07218 72.35785 128.48398 77.78357 96.3137 87.87509 C 63.38522 98.20453 3.6604 118.27176 0.1308 159.73969 C -2.19116 187.01910999999998 26.87256 198.90299 49.90946 197.48441 C 39.67072 196.26926 26.120980000000003 193.19452 21.751440000000002 182.59565 C 10.844150000000003 156.13313 44.21027 138.08079 64.02289 130.6699 C 96.95694 118.35099000000001 132.25223 115.29459000000001 166.35404 107.63285000000002 C 196.26536 100.91260000000003 239.63882999999998 89.84730000000002 248.75637999999998 55.79902000000002 C 250.59750999999997 48.92375000000002 250.43642999999997 41.68516000000002 247.99137 34.97624000000002 C 240.60037 14.69647 217.28 4.42078 197.74875 0 z" stroke-linecap="round" />
</g>
</g>
</g>
		<g transform="matrix(0.0943721962527785 -0.02005942955273919 0.020059429552739205 0.09437219625277855 70.01448642628475 -46.345922255496845)"  >
<g style=""  paint-order="stroke"   >
		<g transform="matrix(1 0 0 1 0 0)"  >
<linearGradient id="SVGID_34_15_15_17_1437715" gradientUnits="userSpaceOnUse" gradientTransform="matrix(1 0 0 1 0 0)"  x1="136.40272905" y1="0" x2="136.40272905" y2="293.90662330000004">
<stop offset="0%" style="stop-color:rgb(252,227,138);stop-opacity: 1"/>
<stop offset="0%" style="stop-color:rgb(230,255,33);stop-opacity: 1"/>
<stop offset="100%" style="stop-color:rgb(145,4,179);stop-opacity: 1"/>
</linearGradient>
<path style="stroke: none; stroke-width: 1; stroke-dasharray: none; stroke-linecap: butt; stroke-dashoffset: 0; stroke-linejoin: miter; stroke-miterlimit: 4; fill: url(#SVGID_34_15_15_17_1437715); fill-rule: nonzero; opacity: 1;"  paint-order="stroke"  transform=" translate(-136.40272905, -146.95331165000002)" d="M 272.7301243 6.319408 C 272.7061632 6.0949403 272.7066424 5.8631884 272.6621706 5.6455257 C 272.6097437 5.3886626 272.51246160000005 5.1506808 272.4330066 4.9048398 C 272.3701327 4.7102756 272.3300697 4.5057435 272.2511897 4.3190385000000004 C 272.1434606 4.063996400000001 271.9946142 3.8334905000000004 271.8588984 3.5948378000000005 C 271.76957139999996 3.4378446000000005 271.7011385 3.2678165000000003 271.60050179999996 3.1186826000000005 C 271.45913129999997 2.9092625000000005 271.28296919999997 2.7286915000000005 271.12060869999993 2.5360442000000005 C 270.99121869999993 2.3825014000000007 270.8795599999999 2.2139110000000004 270.7377101999999 2.0719654000000007 C 270.5808128999999 1.9148763000000006 270.39573729999995 1.7897035000000008 270.2246549999999 1.6478537000000006 C 270.0473427999999 1.5008283000000007 269.88364049999996 1.3380844000000005 269.6923349999999 1.2086944000000006 C 269.5262365999999 1.0963647000000005 269.3378063999999 1.0183473000000007 269.1619318999999 0.9202026000000005 C 268.9399561999999 0.7961799000000005 268.7276607999999 0.6563428000000006 268.4916917999999 0.5564729000000006 C 268.3245390999999 0.4857397000000006 268.1409011999999 0.4512357000000006 267.9674227999999 0.3932498000000006 C 267.7024128999999 0.3046895000000006 267.4437287999999 0.20136920000000058 267.16577999999987 0.1443418000000006 C 266.9521427999999 0.1005409000000006 266.7247038999999 0.1012118000000006 266.5044533999999 0.0771548000000006 C 266.25161579999985 0.049551600000000605 266.0052955999999 0.00019170000000059972 265.74517379999986 6.106226635438361e-16 L 265.6669646999999 6.106226635438361e-16 C 233.17493539999987 6.106226635438361e-16 206.0593953999999 16.3226933 179.8363586999999 32.1086576 C 152.2868350999999 48.693581300000005 126.2600877999999 64.34613010000001 94.9979342999999 61.851107400000004 C 91.1304197999999 61.539804600000004 87.7014893999999 64.4381408 87.3901865999999 68.3301922 C 87.37676839999989 68.4972491 87.40187959999989 68.6568301 87.40015439999989 68.8219701 C 87.39497879999989 68.9327663 87.36718389999989 69.037045 87.36718389999989 69.1490872 L 87.36718389999989 204.0378828 C 86.98840669999989 203.664952 86.61461339999988 203.2879958 86.22165119999988 202.92647060000002 C 76.52219469999989 194.00143540000002 63.71124449999988 189.7060705 50.164208999999886 190.8347348 C 22.5027392 193.136535 0 217.8460011 0 245.9169237 C 0 259.8856773 5.4255616 272.5724154 15.2783693 281.63853370000004 C 23.961108099999997 289.6296606 35.1312016 293.90662330000004 47.1017878 293.90662330000004 C 48.501883299999996 293.90662330000004 49.915780299999994 293.8483499 51.3358114 293.7302695 C 78.2755727 291.4899055 100.315575 267.9920091 101.4455809 240.83381330000003 C 101.45957419999999 240.65237980000003 101.50002049999999 240.47861380000003 101.50002049999999 240.29353810000003 L 101.50002049999999 140.53374620000005 C 101.53049899999999 140.53374620000005 101.56155259999998 140.53556720000006 101.5920312 140.53556720000006 C 133.9138408 140.53556720000006 160.93583669999998 124.27114740000006 187.1251361 108.50511870000005 C 210.70085369999998 94.31323930000005 233.0836915 80.87824350000005 258.6726214 78.74714210000005 L 258.6726214 147.32154600000004 C 258.27189580000004 146.92561260000005 257.87471650000003 146.52670800000004 257.4580808 146.14361770000005 C 247.8306993 137.28759050000005 235.148564 133.02596290000005 221.7196089 134.15156010000004 C 194.2298922 136.45489390000003 171.86516899999998 161.16436000000004 171.86516899999998 189.23374900000005 C 171.86516899999998 203.26230950000004 177.2968647 215.98431840000003 187.1619404 225.05657070000004 C 195.7772047 232.98175660000004 206.84608649999998 237.22498210000003 218.6939919 237.22498210000003 C 220.0848863 237.22498210000003 221.4895823 237.16670870000004 222.9004123 237.04862830000005 C 250.0813182 234.77117250000003 272.236813 210.58568810000006 272.7314662 182.90868620000003 C 272.7570567 182.66409120000003 272.8054581 182.42630110000005 272.8054581 182.17499690000002 L 272.8054581 7.0664196 C 272.8054581 6.810514899999999 272.7566733 6.5682201 272.7301244 6.319407999999999 Z" stroke-linecap="round" />
</g>
</g>
</g>
		<g transform="matrix(0.08481481700515878 0.05299817973432177 -0.05299817973432176 0.08481481700515876 -79.69884575928745 52.653669715486984)"  >
<g style=""  paint-order="stroke"   >
		<g transform="matrix(1 0 0 1 0 0)"  >
<linearGradient id="SVGID_35_16_16_18_1437716" gradientUnits="userSpaceOnUse" gradientTransform="matrix(1 0 0 1 0.4491724433087114 0)"  x1="150" y1="0" x2="150" y2="300">
<stop offset="0%" style="stop-color:rgb(179,10,198);stop-opacity: 1"/>
<stop offset="100%" style="stop-color:rgb(230,255,33);stop-opacity: 1"/>
</linearGradient>
<path style="stroke: none; stroke-width: 1; stroke-dasharray: none; stroke-linecap: butt; stroke-dashoffset: 0; stroke-linejoin: miter; stroke-miterlimit: 4; fill: url(#SVGID_35_16_16_18_1437716); fill-rule: nonzero; opacity: 1;"  paint-order="stroke"  transform=" translate(-120.02458622165435, -150)" d="M 156.7 40.8 C 133 3 89.7 0 76.1 0 C 73.39999999999999 0 71.89999999999999 0.1 71.89999999999999 0.1 L 108 173.6 C 99.5 169.9 89.4 168.79999999999998 78.4 170.4 C 61.50000000000001 172.8 44.300000000000004 181.5 29.900000000000006 194.8 C 15.6 208 5.7 224.6 2 241.2 C -1.9 259 1.6 274.9 12 286 C 20.5 295.2 32.5 300 46.6 300 C 49.6 300 52.800000000000004 299.8 56 299.3 C 72.8 297 90 288.3 104.4 275 C 118.7 261.7 128.70000000000002 245.2 132.4 228.5 C 135.3 215.1 133.1 206.1 129.6 191.9 L 105.3 79.1 C 116.5 80.3 131.7 85 151.1 98.3 C 162.9 106.39999999999999 174.1 109.5 184.39999999999998 109.5 C 216.89999999999998 109.5 239.59999999999997 78.7 239.59999999999997 78.7 C 239.59999999999997 78.7 180.6 78.7 156.7 40.8 z" stroke-linecap="round" />
</g>
</g>
</g>
		<g transform="matrix(0.06535641494916283 0 0 0.06535641494916283 60.2110241839103 -76.6614470542759)"  >
<g style=""  paint-order="stroke"   >
		<g transform="matrix(1 0 0 1 0 0)"  >
<linearGradient id="SVGID_35_16_16_18_1437717" gradientUnits="userSpaceOnUse" gradientTransform="matrix(1 0 0 1 0 0)"  x1="150" y1="0" x2="150" y2="300">
<stop offset="0%" style="stop-color:rgb(179,10,198);stop-opacity: 1"/>
<stop offset="100%" style="stop-color:rgb(230,255,33);stop-opacity: 1"/>
</linearGradient>
<path style="stroke: none; stroke-width: 1; stroke-dasharray: none; stroke-linecap: butt; stroke-dashoffset: 0; stroke-linejoin: miter; stroke-miterlimit: 4; fill: url(#SVGID_35_16_16_18_1437717); fill-rule: nonzero; opacity: 1;"  paint-order="stroke"  transform=" translate(-150, -150)" d="M 148 300 L 148 300 C 150 218 218 152 300 152 L 300 152 C 218 150 152 82 152 0 L 152 0 C 150 82 82 148 0 148 L 0 148 C 84 150 150 216 148 300 Z" stroke-linecap="round" />
</g>
</g>
</g>
		<g transform="matrix(0.04441169702658029 0 0 0.04441169702658029 53.110385864019634 -93.12666385063739)"  >
<g style=""  paint-order="stroke"   >
		<g transform="matrix(1 0 0 1 0 0)"  >
<linearGradient id="SVGID_35_16_16_18_1437718" gradientUnits="userSpaceOnUse" gradientTransform="matrix(1 0 0 1 0 0)"  x1="150" y1="0" x2="150" y2="300">
<stop offset="0%" style="stop-color:rgb(179,10,198);stop-opacity: 1"/>
<stop offset="100%" style="stop-color:rgb(230,255,33);stop-opacity: 1"/>
</linearGradient>
<path style="stroke: none; stroke-width: 1; stroke-dasharray: none; stroke-linecap: butt; stroke-dashoffset: 0; stroke-linejoin: miter; stroke-miterlimit: 4; fill: url(#SVGID_35_16_16_18_1437718); fill-rule: nonzero; opacity: 1;"  paint-order="stroke"  transform=" translate(-150, -150)" d="M 148 300 L 148 300 C 150 218 218 152 300 152 L 300 152 C 218 150 152 82 152 0 L 152 0 C 150 82 82 148 0 148 L 0 148 C 84 150 150 216 148 300 Z" stroke-linecap="round" />
</g>
</g>
</g>
		<g transform="matrix(0.04441169702658029 0 0 0.04441169702658029 76.67624098027181 -89.28393870323382)"  >
<g style=""  paint-order="stroke"   >
		<g transform="matrix(1 0 0 1 0 0)"  >
<linearGradient id="SVGID_35_16_16_18_1437719" gradientUnits="userSpaceOnUse" gradientTransform="matrix(1 0 0 1 0 0)"  x1="150" y1="0" x2="150" y2="300">
<stop offset="0%" style="stop-color:rgb(179,10,198);stop-opacity: 1"/>
<stop offset="100%" style="stop-color:rgb(230,255,33);stop-opacity: 1"/>
</linearGradient>
<path style="stroke: none; stroke-width: 1; stroke-dasharray: none; stroke-linecap: butt; stroke-dashoffset: 0; stroke-linejoin: miter; stroke-miterlimit: 4; fill: url(#SVGID_35_16_16_18_1437719); fill-rule: nonzero; opacity: 1;"  paint-order="stroke"  transform=" translate(-150, -150)" d="M 148 300 L 148 300 C 150 218 218 152 300 152 L 300 152 C 218 150 152 82 152 0 L 152 0 C 150 82 82 148 0 148 L 0 148 C 84 150 150 216 148 300 Z" stroke-linecap="round" />
</g>
</g>
</g>
		<g transform="matrix(0.06535641494916283 0 0 0.06535641494916283 -52.5410367139487 70.62984241994886)"  >
<g style=""  paint-order="stroke"   >
		<g transform="matrix(1 0 0 1 0 0)"  >
<linearGradient id="SVGID_35_16_16_18_1437720" gradientUnits="userSpaceOnUse" gradientTransform="matrix(1 0 0 1 0 0)"  x1="150" y1="0" x2="150" y2="300">
<stop offset="0%" style="stop-color:rgb(179,10,198);stop-opacity: 1"/>
<stop offset="100%" style="stop-color:rgb(230,255,33);stop-opacity: 1"/>
</linearGradient>
<path style="stroke: none; stroke-width: 1; stroke-dasharray: none; stroke-linecap: butt; stroke-dashoffset: 0; stroke-linejoin: miter; stroke-miterlimit: 4; fill: url(#SVGID_35_16_16_18_1437720); fill-rule: nonzero; opacity: 1;"  paint-order="stroke"  transform=" translate(-150, -150)" d="M 148 300 L 148 300 C 150 218 218 152 300 152 L 300 152 C 218 150 152 82 152 0 L 152 0 C 150 82 82 148 0 148 L 0 148 C 84 150 150 216 148 300 Z" stroke-linecap="round" />
</g>
</g>
</g>
		<g transform="matrix(0.04441169702658029 0 0 0.04441169702658029 -67.71825149863116 82.49389292390688)"  >
<g style=""  paint-order="stroke"   >
		<g transform="matrix(1 0 0 1 0 0)"  >
<linearGradient id="SVGID_35_16_16_18_1437721" gradientUnits="userSpaceOnUse" gradientTransform="matrix(1 0 0 1 0 0)"  x1="150" y1="0" x2="150" y2="300">
<stop offset="0%" style="stop-color:rgb(179,10,198);stop-opacity: 1"/>
<stop offset="100%" style="stop-color:rgb(230,255,33);stop-opacity: 1"/>
</linearGradient>
<path style="stroke: none; stroke-width: 1; stroke-dasharray: none; stroke-linecap: butt; stroke-dashoffset: 0; stroke-linejoin: miter; stroke-miterlimit: 4; fill: url(#SVGID_35_16_16_18_1437721); fill-rule: nonzero; opacity: 1;"  paint-order="stroke"  transform=" translate(-150, -150)" d="M 148 300 L 148 300 C 150 218 218 152 300 152 L 300 152 C 218 150 152 82 152 0 L 152 0 C 150 82 82 148 0 148 L 0 148 C 84 150 150 216 148 300 Z" stroke-linecap="round" />
</g>
</g>
</g>
		<g transform="matrix(0.04441169702658029 0 0 0.04441169702658029 -42.73757447157425 89.15564747789395)"  >
<g style=""  paint-order="stroke"   >
		<g transform="matrix(1 0 0 1 0 0)"  >
<linearGradient id="SVGID_35_16_16_18_1437722" gradientUnits="userSpaceOnUse" gradientTransform="matrix(1 0 0 1 0 0)"  x1="150" y1="0" x2="150" y2="300">
<stop offset="0%" style="stop-color:rgb(179,10,198);stop-opacity: 1"/>
<stop offset="100%" style="stop-color:rgb(230,255,33);stop-opacity: 1"/>
</linearGradient>
<path style="stroke: none; stroke-width: 1; stroke-dasharray: none; stroke-linecap: butt; stroke-dashoffset: 0; stroke-linejoin: miter; stroke-miterlimit: 4; fill: url(#SVGID_35_16_16_18_1437722); fill-rule: nonzero; opacity: 1;"  paint-order="stroke"  transform=" translate(-150, -150)" d="M 148 300 L 148 300 C 150 218 218 152 300 152 L 300 152 C 218 150 152 82 152 0 L 152 0 C 150 82 82 148 0 148 L 0 148 C 84 150 150 216 148 300 Z" stroke-linecap="round" />
</g>
</g>
</g>
</g>
</g>
<g transform="matrix(1.9211538461538462 0 0 1.9211538461538462 668.5779246897264 693.0080324310229)" id="text-logo"  >
<g style=""  paint-order="stroke"   >
		<g transform="matrix(1 0 0 1 0 0)" id="text-logo-path-0"  >
<path style="stroke: rgb(255,255,255); stroke-width: 0; stroke-dasharray: none; stroke-linecap: butt; stroke-dashoffset: 0; stroke-linejoin: miter; stroke-miterlimit: 4; fill: rgb(255,220,18); fill-rule: nonzero; opacity: 1;"  paint-order="stroke"  transform=" translate(-122.81243243443697, 27.3)" d="M 2.34 -51.79 L 2.34 -2.81 C 2.34 -1.95 1.87 -1.09 1.17 -0.47 C 0.94 -0.23 1.09 0 1.33 0 L 32.21 0 L 36.11 -10.06 L 36.5 -11.08 C 36.58 -11.31 36.43 -11.54 36.11 -11.39 C 35.26 -11 34.16 -10.14 33.31 -10.14 L 13.88 -10.14 C 13.1 -10.14 12.48 -10.76 12.48 -11.54 L 12.48 -51.79 C 12.48 -52.65 12.95 -53.51 13.65 -54.13 C 13.88 -54.37 13.73 -54.6 13.49 -54.6 L 1.33 -54.6 C 1.09 -54.6 0.94 -54.37 1.17 -54.13 C 1.87 -53.51 2.34 -52.65 2.34 -51.79 Z M 80.34 -51.95 L 64.9 -2.65 C 64.58 -1.87 63.57 -1.09 62.87 -0.47 C 62.63 -0.23 62.79 0 63.02 0 L 75.58 0 C 75.82 0 75.97 -0.23 75.74 -0.47 C 75.04 -1.09 75.11 -1.87 75.43 -2.65 L 75.89 -4.13 C 78.08 -8.81 90.25 -9.28 95.86 -11.93 C 96.56 -12.32 97.27 -12.01 97.5 -11.31 L 100.23 -2.65 C 100.54 -1.87 100.62 -1.09 99.92 -0.47 C 99.68 -0.23 99.84 0 100.07 0 L 112.63 0 C 112.87 0 113.02 -0.23 112.79 -0.47 C 112.09 -1.09 111.07 -1.87 110.76 -2.65 L 95.32 -51.95 C 95 -52.73 94.93 -53.51 95.63 -54.13 C 95.86 -54.37 95.71 -54.6 95.47 -54.6 L 80.18 -54.6 C 79.95 -54.6 79.79 -54.37 80.03 -54.13 C 80.73 -53.51 80.65 -52.73 80.34 -51.95 Z M 79.79 -16.77 L 87.44 -40.87 C 87.67 -41.57 87.98 -41.57 88.22 -40.87 L 94.22 -21.76 C 93.37 -19.19 84.32 -18.95 80.42 -16.38 C 79.87 -15.83 79.56 -16.07 79.79 -16.77 Z M 146.41 0 L 161.69 0 C 161.93 0 162.08 -0.23 161.85 -0.47 C 161.15 -1.09 161.23 -1.87 161.54 -2.65 L 176.98 -51.95 C 177.29 -52.73 178.31 -53.51 179.01 -54.13 C 179.24 -54.37 179.09 -54.6 178.85 -54.6 L 166.3 -54.6 C 166.06 -54.6 165.91 -54.37 166.14 -54.13 C 166.84 -53.51 166.76 -52.73 166.45 -51.95 L 154.44 -13.73 C 154.21 -13.03 153.89 -13.03 153.66 -13.73 L 141.65 -51.95 C 141.34 -52.73 141.26 -53.51 141.96 -54.13 C 142.19 -54.37 142.04 -54.6 141.8 -54.6 L 129.25 -54.6 C 129.01 -54.6 128.86 -54.37 129.09 -54.13 C 129.79 -53.51 130.81 -52.73 131.12 -51.95 L 146.56 -2.65 C 146.87 -1.87 146.95 -1.09 146.25 -0.47 C 146.02 -0.23 146.17 0 146.41 0 Z M 212 -51.95 L 196.56 -2.65 C 196.25 -1.87 195.23 -1.09 194.53 -0.47 C 194.3 -0.23 194.45 0 194.69 0 L 207.25 0 C 207.48 0 207.64 -0.23 207.4 -0.47 C 206.7 -1.09 206.78 -1.87 207.09 -2.65 L 207.56 -4.13 C 209.74 -8.81 221.91 -9.28 227.53 -11.93 C 228.23 -12.32 228.93 -12.01 229.16 -11.31 L 231.89 -2.65 C 232.21 -1.87 232.28 -1.09 231.58 -0.47 C 231.35 -0.23 231.5 0 231.74 0 L 244.3 0 C 244.53 0 244.69 -0.23 244.45 -0.47 C 243.75 -1.09 242.74 -1.87 242.42 -2.65 L 226.98 -51.95 C 226.67 -52.73 226.59 -53.51 227.29 -54.13 C 227.53 -54.37 227.37 -54.6 227.14 -54.6 L 211.85 -54.6 C 211.61 -54.6 211.46 -54.37 211.69 -54.13 C 212.39 -53.51 212.32 -52.73 212 -51.95 Z M 211.46 -16.77 L 219.1 -40.87 C 219.34 -41.57 219.65 -41.57 219.88 -40.87 L 225.89 -21.76 C 225.03 -19.19 215.98 -18.95 212.08 -16.38 C 211.54 -15.83 211.22 -16.07 211.46 -16.77 Z" stroke-linecap="round" />
</g>
</g>
</g>
<g transform="matrix(1.9211538461538462 0 0 1.9211538461538462 668.6228359550622 863.86872441919)" id="tagline-15fa1fba-7c57-43f0-8638-c169efa15d6e-logo"  >
<g style=""  paint-order="stroke"   >
		<g transform="matrix(1 0 0 1 0 -19.00660000000005)" id="tagline-15fa1fba-7c57-43f0-8638-c169efa15d6e-logo-path-0"  >
<path style="stroke: none; stroke-width: 0; stroke-dasharray: none; stroke-linecap: butt; stroke-dashoffset: 0; stroke-linejoin: miter; stroke-miterlimit: 4; fill: rgb(242,15,186); fill-rule: nonzero; opacity: 1;"  paint-order="stroke"  transform=" translate(-228.32000000000002, 11.1)" d="M 18.41 -5.1 L 18.41 -5.1 Q 19.1 -5.1 19.6 -5.59 L 19.6 -5.59 L 22.73 -8.72 Q 22.98 -8.98 23.1 -9.29 Q 23.22 -9.6 23.22 -9.91 L 23.22 -9.91 Q 23.22 -10.24 23.1 -10.54 Q 22.98 -10.85 22.73 -11.1 L 22.73 -11.1 L 19.6 -14.23 Q 19.1 -14.73 18.41 -14.73 L 18.41 -14.73 Q 17.71 -14.73 17.22 -14.23 L 17.22 -14.23 L 14.09 -11.1 Q 13.83 -10.85 13.71 -10.54 Q 13.59 -10.24 13.59 -9.91 L 13.59 -9.91 Q 13.59 -9.6 13.71 -9.29 Q 13.83 -8.98 14.09 -8.72 L 14.09 -8.72 L 17.22 -5.59 Q 17.71 -5.1 18.41 -5.1 Z M 15.05 -8.11 L 15.62 -7.55 L 15.62 -12.19 L 15.05 -11.58 L 15.05 -8.11 Z M 14.54 -10.99 L 19.48 -6.06 L 19.88 -6.46 L 14.94 -11.38 L 14.54 -10.99 Z M 16.37 -6.83 L 16.94 -6.26 L 16.94 -13.58 L 16.37 -12.97 L 16.37 -6.83 Z M 18.41 -5.66 L 18.41 -5.66 Q 18.2 -5.66 17.99 -5.74 Q 17.79 -5.82 17.62 -5.99 L 17.62 -5.99 L 14.49 -9.12 Q 14.16 -9.44 14.16 -9.91 L 14.16 -9.91 Q 14.16 -10.38 14.49 -10.71 L 14.49 -10.71 L 17.62 -13.83 Q 17.79 -14 17.99 -14.08 Q 18.2 -14.16 18.41 -14.16 L 18.41 -14.16 Q 18.62 -14.16 18.83 -14.08 Q 19.03 -14 19.2 -13.83 L 19.2 -13.83 L 22.33 -10.71 Q 22.66 -10.38 22.66 -9.91 L 22.66 -9.91 Q 22.66 -9.44 22.33 -9.12 L 22.33 -9.12 L 19.2 -5.99 Q 19.03 -5.82 18.83 -5.74 Q 18.62 -5.66 18.41 -5.66 Z M 15.73 -12.19 L 20.69 -7.24 L 21.08 -7.63 L 16.13 -12.59 L 15.73 -12.19 Z M 18.13 -14.44 L 18.13 -5.38 L 18.69 -5.38 L 18.69 -14.44 L 18.13 -14.44 Z M 19.88 -13.57 L 19.88 -6.24 L 20.45 -6.85 L 20.45 -13 L 19.88 -13.57 Z M 16.94 -13.37 L 21.88 -8.44 L 22.27 -8.84 L 17.33 -13.76 L 16.94 -13.37 Z M 21.2 -12.28 L 21.2 -7.63 L 21.76 -8.24 L 21.76 -11.71 L 21.2 -12.28 Z M 62.58 -1.33 L 62.58 -1.33 L 62.58 -21.17 Q 62.58 -21.69 62.96 -22.07 Q 63.33 -22.44 63.89 -22.44 L 63.89 -22.44 L 70.88 -22.44 Q 73.18 -22.44 75.06 -21.46 Q 76.94 -20.48 78.27 -18.88 Q 79.6 -17.29 80.33 -15.26 Q 81.06 -13.23 81.06 -11.13 L 81.06 -11.13 Q 81.06 -8.55 80.18 -6.42 Q 79.29 -4.29 77.86 -2.77 Q 76.42 -1.25 74.59 -0.4 Q 72.76 0.44 70.91 0.44 L 70.91 0.44 L 63.77 0.44 Q 63.42 0.44 63.1 0.23 Q 62.78 0.03 62.64 -0.28 L 62.64 -0.28 Q 62.5 -0.55 62.5 -0.85 L 62.5 -0.85 Q 62.5 -1.08 62.58 -1.33 Z M 65.16 -19.9 L 65.16 -2.12 L 70.91 -2.12 Q 72.57 -2.12 73.94 -2.92 Q 75.31 -3.71 76.33 -4.98 Q 77.35 -6.26 77.91 -7.89 Q 78.47 -9.52 78.47 -11.13 L 78.47 -11.13 Q 78.47 -12.79 77.93 -14.37 Q 77.38 -15.94 76.38 -17.18 Q 75.37 -18.41 73.97 -19.15 Q 72.57 -19.9 70.88 -19.9 L 70.88 -19.9 L 65.16 -19.9 Z M 89.95 -0.37 L 89.95 -0.37 Q 89.85 -0.59 89.85 -0.84 L 89.85 -0.84 Q 89.85 -1.1 89.98 -1.36 L 89.98 -1.36 L 92.59 -7.53 L 98.7 -21.86 Q 98.85 -22.25 99.17 -22.44 Q 99.5 -22.64 99.89 -22.64 L 99.89 -22.64 Q 100.28 -22.64 100.59 -22.44 Q 100.91 -22.25 101.05 -21.86 L 101.05 -21.86 Q 103.26 -16.69 105.44 -11.61 Q 107.61 -6.53 109.82 -1.36 L 109.82 -1.36 Q 109.92 -1.1 109.92 -0.86 Q 109.92 -0.62 109.82 -0.37 L 109.82 -0.37 Q 109.62 0.13 109.13 0.33 L 109.13 0.33 Q 108.9 0.44 108.63 0.44 L 108.63 0.44 Q 108.25 0.44 107.92 0.23 Q 107.58 0.03 107.44 -0.35 L 107.44 -0.35 L 105.15 -5.75 L 94.63 -5.75 L 92.33 -0.35 Q 92.13 0.14 91.64 0.34 L 91.64 0.34 Q 91.4 0.44 91.17 0.44 L 91.17 0.44 L 90.65 0.33 Q 90.15 0.13 89.95 -0.37 Z M 99.89 -18.07 L 95.73 -8.33 L 104.04 -8.33 L 99.89 -18.07 Z M 119.35 -0.84 L 119.35 -0.84 L 119.35 -21.17 Q 119.35 -21.69 119.72 -22.07 Q 120.1 -22.44 120.62 -22.44 L 120.62 -22.44 Q 121.34 -22.44 121.73 -21.86 L 121.73 -21.86 L 132.19 -5.28 L 132.19 -21.17 Q 132.19 -21.69 132.55 -22.07 Q 132.91 -22.44 133.47 -22.44 L 133.47 -22.44 Q 133.99 -22.44 134.36 -22.07 Q 134.74 -21.69 134.74 -21.17 L 134.74 -21.17 L 134.74 -0.84 Q 134.74 -0.31 134.36 0.06 Q 133.99 0.44 133.47 0.44 L 133.47 0.44 Q 132.74 0.44 132.37 -0.17 L 132.37 -0.17 L 121.9 -16.77 L 121.9 -0.84 Q 121.9 -0.31 121.54 0.06 Q 121.17 0.44 120.62 0.44 L 120.62 0.44 Q 120.1 0.44 119.72 0.06 Q 119.35 -0.33 119.35 -0.84 Z M 145.47 -11.13 L 145.47 -11.13 Q 145.47 -13.51 146.38 -15.58 Q 147.3 -17.66 148.86 -19.18 Q 150.43 -20.7 152.53 -21.57 Q 154.63 -22.44 157.04 -22.44 L 157.04 -22.44 Q 159.36 -22.44 161.45 -21.59 Q 163.54 -20.73 165.2 -19.09 L 165.2 -19.09 Q 165.61 -18.68 165.61 -18.17 L 165.61 -18.17 Q 165.61 -17.63 165.2 -17.26 L 165.2 -17.26 Q 164.81 -16.88 164.29 -16.88 Q 163.77 -16.88 163.4 -17.26 L 163.4 -17.26 Q 162.09 -18.56 160.47 -19.23 Q 158.84 -19.9 157.04 -19.9 L 157.04 -19.9 Q 155.16 -19.9 153.52 -19.22 Q 151.89 -18.54 150.67 -17.36 Q 149.45 -16.19 148.75 -14.59 Q 148.05 -13 148.05 -11.13 L 148.05 -11.13 Q 148.05 -9.27 148.76 -7.64 Q 149.48 -6 150.7 -4.79 Q 151.91 -3.57 153.55 -2.86 Q 155.18 -2.15 157.04 -2.15 L 157.04 -2.15 Q 158.84 -2.15 160.46 -2.82 Q 162.08 -3.48 163.4 -4.76 L 163.4 -4.76 Q 163.78 -5.17 164.3 -5.17 Q 164.81 -5.17 165.2 -4.76 L 165.2 -4.76 Q 165.61 -4.38 165.61 -3.88 L 165.61 -3.88 Q 165.61 -3.36 165.2 -2.96 L 165.2 -2.96 Q 163.54 -1.3 161.45 -0.43 Q 159.36 0.44 157.04 0.44 L 157.04 0.44 Q 154.63 0.44 152.53 -0.47 Q 150.43 -1.39 148.86 -2.95 Q 147.3 -4.52 146.38 -6.62 Q 145.47 -8.72 145.47 -11.13 Z M 176.32 -0.84 L 176.32 -0.84 L 176.32 -0.89 L 176.32 -0.96 L 176.32 -21.17 Q 176.32 -21.69 176.7 -22.07 Q 177.07 -22.44 177.63 -22.44 L 177.63 -22.44 L 187.61 -22.44 Q 188.16 -22.44 188.54 -22.07 Q 188.91 -21.69 188.91 -21.17 L 188.91 -21.17 Q 188.91 -20.62 188.54 -20.26 Q 188.16 -19.9 187.61 -19.9 L 187.61 -19.9 L 178.9 -19.9 L 178.9 -12.5 L 186.24 -12.5 Q 186.76 -12.5 187.14 -12.14 Q 187.52 -11.77 187.52 -11.23 L 187.52 -11.23 Q 187.52 -10.71 187.14 -10.32 Q 186.76 -9.94 186.24 -9.94 L 186.24 -9.94 L 178.9 -9.94 L 178.9 -2.15 L 187.61 -2.15 Q 188.16 -2.15 188.54 -1.77 Q 188.91 -1.39 188.91 -0.84 L 188.91 -0.84 Q 188.91 -0.31 188.54 0.06 Q 188.16 0.44 187.61 0.44 L 187.61 0.44 L 177.63 0.44 Q 177.07 0.44 176.7 0.06 Q 176.32 -0.33 176.32 -0.84 Z M 231.32 -5.1 L 231.32 -5.1 Q 232.01 -5.1 232.51 -5.59 L 232.51 -5.59 L 235.64 -8.72 Q 235.89 -8.98 236.01 -9.29 Q 236.13 -9.6 236.13 -9.91 L 236.13 -9.91 Q 236.13 -10.24 236.01 -10.54 Q 235.89 -10.85 235.64 -11.1 L 235.64 -11.1 L 232.51 -14.23 Q 232.01 -14.73 231.32 -14.73 L 231.32 -14.73 Q 230.62 -14.73 230.13 -14.23 L 230.13 -14.23 L 227 -11.1 Q 226.74 -10.85 226.62 -10.54 Q 226.5 -10.24 226.5 -9.91 L 226.5 -9.91 Q 226.5 -9.6 226.62 -9.29 Q 226.74 -8.98 227 -8.72 L 227 -8.72 L 230.13 -5.59 Q 230.62 -5.1 231.32 -5.1 Z M 227.96 -8.11 L 228.53 -7.55 L 228.53 -12.19 L 227.96 -11.58 L 227.96 -8.11 Z M 227.45 -10.99 L 232.39 -6.06 L 232.79 -6.46 L 227.85 -11.38 L 227.45 -10.99 Z M 229.28 -6.83 L 229.84 -6.26 L 229.84 -13.58 L 229.28 -12.97 L 229.28 -6.83 Z M 231.32 -5.66 L 231.32 -5.66 Q 231.1 -5.66 230.9 -5.74 Q 230.69 -5.82 230.52 -5.99 L 230.52 -5.99 L 227.39 -9.12 Q 227.07 -9.44 227.07 -9.91 L 227.07 -9.91 Q 227.07 -10.38 227.39 -10.71 L 227.39 -10.71 L 230.52 -13.83 Q 230.69 -14 230.9 -14.08 Q 231.1 -14.16 231.32 -14.16 L 231.32 -14.16 Q 231.53 -14.16 231.73 -14.08 Q 231.94 -14 232.11 -13.83 L 232.11 -13.83 L 235.24 -10.71 Q 235.57 -10.38 235.57 -9.91 L 235.57 -9.91 Q 235.57 -9.44 235.24 -9.12 L 235.24 -9.12 L 232.11 -5.99 Q 231.94 -5.82 231.73 -5.74 Q 231.53 -5.66 231.32 -5.66 Z M 228.64 -12.19 L 233.6 -7.24 L 233.99 -7.63 L 229.04 -12.59 L 228.64 -12.19 Z M 231.03 -14.44 L 231.03 -5.38 L 231.6 -5.38 L 231.6 -14.44 L 231.03 -14.44 Z M 232.79 -13.57 L 232.79 -6.24 L 233.36 -6.85 L 233.36 -13 L 232.79 -13.57 Z M 229.84 -13.37 L 234.79 -8.44 L 235.18 -8.84 L 230.24 -13.76 L 229.84 -13.37 Z M 234.11 -12.28 L 234.11 -7.63 L 234.67 -8.24 L 234.67 -11.71 L 234.11 -12.28 Z M 275.41 -0.84 L 275.41 -0.84 L 275.41 -21.17 Q 275.41 -21.69 275.78 -22.07 Q 276.16 -22.44 276.68 -22.44 L 276.68 -22.44 Q 277.46 -22.44 277.84 -21.75 L 277.84 -21.75 L 286.72 -3.74 L 295.59 -21.75 Q 295.97 -22.44 296.75 -22.44 L 296.75 -22.44 Q 297.27 -22.44 297.65 -22.07 Q 298.02 -21.69 298.02 -21.17 L 298.02 -21.17 L 298.02 -0.84 Q 298.02 -0.31 297.65 0.06 Q 297.27 0.44 296.75 0.44 L 296.75 0.44 Q 296.22 0.44 295.85 0.06 Q 295.47 -0.33 295.47 -0.84 L 295.47 -0.84 L 295.47 -15.94 L 287.88 -0.28 Q 287.71 0.04 287.39 0.24 Q 287.06 0.44 286.72 0.44 L 286.72 0.44 Q 286.37 0.44 286.05 0.23 Q 285.73 0.03 285.56 -0.28 L 285.56 -0.28 L 277.96 -15.94 L 277.96 -0.84 Q 277.96 -0.31 277.6 0.06 Q 277.23 0.44 276.68 0.44 L 276.68 0.44 Q 276.16 0.44 275.78 0.06 Q 275.41 -0.33 275.41 -0.84 Z M 309.39 -8.38 L 309.39 -8.38 L 309.39 -21.17 Q 309.39 -21.69 309.77 -22.07 Q 310.14 -22.44 310.69 -22.44 L 310.69 -22.44 Q 311.22 -22.44 311.59 -22.07 Q 311.97 -21.69 311.97 -21.17 L 311.97 -21.17 L 311.97 -8.38 Q 311.97 -7.08 312.46 -5.95 Q 312.96 -4.81 313.8 -3.97 Q 314.64 -3.13 315.78 -2.64 Q 316.92 -2.15 318.21 -2.15 L 318.21 -2.15 Q 319.51 -2.15 320.64 -2.64 Q 321.77 -3.13 322.62 -3.97 Q 323.48 -4.81 323.97 -5.96 Q 324.47 -7.11 324.47 -8.38 L 324.47 -8.38 L 324.47 -21.17 Q 324.47 -21.69 324.85 -22.07 Q 325.22 -22.44 325.74 -22.44 L 325.74 -22.44 Q 326.3 -22.44 326.67 -22.07 Q 327.05 -21.69 327.05 -21.17 L 327.05 -21.17 L 327.05 -8.38 Q 327.05 -6.56 326.35 -4.95 Q 325.66 -3.34 324.46 -2.15 Q 323.25 -0.96 321.65 -0.26 Q 320.04 0.44 318.21 0.44 L 318.21 0.44 Q 316.39 0.44 314.78 -0.26 Q 313.18 -0.96 311.98 -2.15 Q 310.78 -3.34 310.08 -4.95 Q 309.39 -6.56 309.39 -8.38 Z M 337.78 -5.98 L 337.78 -5.98 Q 337.78 -6.53 338.15 -6.9 Q 338.53 -7.28 339.08 -7.28 L 339.08 -7.28 Q 339.61 -7.28 339.98 -6.9 Q 340.36 -6.53 340.36 -5.98 L 340.36 -5.98 Q 340.36 -5.2 340.66 -4.5 Q 340.96 -3.79 341.49 -3.28 Q 342.01 -2.76 342.71 -2.46 Q 343.4 -2.15 344.19 -2.15 L 344.19 -2.15 Q 344.97 -2.15 345.68 -2.46 Q 346.39 -2.76 346.91 -3.28 Q 347.44 -3.79 347.74 -4.5 Q 348.04 -5.2 348.04 -5.98 L 348.04 -5.98 Q 348.04 -6.94 347.67 -7.56 Q 347.29 -8.18 346.63 -8.64 L 346.63 -8.64 Q 346.3 -8.86 345.9 -9.06 Q 345.5 -9.25 345.06 -9.46 L 345.06 -9.46 Q 344.62 -9.63 344.16 -9.81 Q 343.7 -9.98 343.2 -10.15 L 343.2 -10.15 Q 342.24 -10.51 341.27 -10.94 Q 340.3 -11.37 339.53 -12.02 Q 338.77 -12.67 338.27 -13.64 Q 337.78 -14.61 337.78 -16.04 L 337.78 -16.04 Q 337.78 -17.37 338.29 -18.54 Q 338.8 -19.7 339.66 -20.56 Q 340.53 -21.42 341.69 -21.93 Q 342.85 -22.44 344.19 -22.44 L 344.19 -22.44 Q 345.52 -22.44 346.7 -21.93 Q 347.88 -21.42 348.75 -20.56 Q 349.62 -19.7 350.12 -18.54 Q 350.62 -17.37 350.62 -16.04 L 350.62 -16.04 Q 350.62 -15.52 350.25 -15.14 Q 349.87 -14.75 349.32 -14.75 L 349.32 -14.75 Q 348.8 -14.75 348.42 -15.14 Q 348.04 -15.52 348.04 -16.04 L 348.04 -16.04 Q 348.04 -16.82 347.74 -17.53 Q 347.44 -18.24 346.91 -18.76 Q 346.39 -19.29 345.68 -19.59 Q 344.97 -19.9 344.19 -19.9 L 344.19 -19.9 Q 343.41 -19.9 342.71 -19.59 Q 342.01 -19.29 341.49 -18.76 Q 340.96 -18.24 340.66 -17.53 Q 340.36 -16.82 340.36 -16.04 L 340.36 -16.04 Q 340.36 -15.18 340.72 -14.59 Q 341.08 -14 341.76 -13.57 L 341.76 -13.57 Q 342.45 -13.13 343.32 -12.79 L 343.32 -12.79 Q 343.78 -12.62 344.24 -12.44 Q 344.7 -12.26 345.2 -12.09 L 345.2 -12.09 Q 346.16 -11.74 347.13 -11.29 Q 348.1 -10.85 348.87 -10.17 Q 349.65 -9.49 350.13 -8.47 Q 350.62 -7.45 350.62 -5.98 L 350.62 -5.98 Q 350.62 -4.64 350.12 -3.48 Q 349.62 -2.32 348.75 -1.45 Q 347.88 -0.58 346.7 -0.07 Q 345.52 0.44 344.19 0.44 L 344.19 0.44 Q 342.86 0.44 341.69 -0.07 Q 340.53 -0.58 339.66 -1.45 Q 338.8 -2.32 338.29 -3.48 Q 337.78 -4.64 337.78 -5.98 Z M 361.35 -0.84 L 361.35 -0.84 L 361.35 -21.17 Q 361.35 -21.69 361.73 -22.07 Q 362.1 -22.44 362.66 -22.44 L 362.66 -22.44 Q 363.18 -22.44 363.56 -22.07 Q 363.93 -21.69 363.93 -21.17 L 363.93 -21.17 L 363.93 -0.84 Q 363.93 -0.31 363.56 0.06 Q 363.18 0.44 362.66 0.44 L 362.66 0.44 Q 362.1 0.44 361.73 0.06 Q 361.35 -0.33 361.35 -0.84 Z M 374.66 -11.13 L 374.66 -11.13 Q 374.66 -13.51 375.58 -15.58 Q 376.49 -17.66 378.05 -19.18 Q 379.62 -20.7 381.72 -21.57 Q 383.82 -22.44 386.23 -22.44 L 386.23 -22.44 Q 388.55 -22.44 390.64 -21.59 Q 392.73 -20.73 394.39 -19.09 L 394.39 -19.09 Q 394.8 -18.68 394.8 -18.17 L 394.8 -18.17 Q 394.8 -17.63 394.39 -17.26 L 394.39 -17.26 Q 394 -16.88 393.48 -16.88 Q 392.96 -16.88 392.59 -17.26 L 392.59 -17.26 Q 391.29 -18.56 389.66 -19.23 Q 388.03 -19.9 386.23 -19.9 L 386.23 -19.9 Q 384.35 -19.9 382.71 -19.22 Q 381.08 -18.54 379.86 -17.36 Q 378.64 -16.19 377.94 -14.59 Q 377.24 -13 377.24 -11.13 L 377.24 -11.13 Q 377.24 -9.27 377.95 -7.64 Q 378.67 -6 379.89 -4.79 Q 381.1 -3.57 382.74 -2.86 Q 384.38 -2.15 386.23 -2.15 L 386.23 -2.15 Q 388.03 -2.15 389.65 -2.82 Q 391.27 -3.48 392.59 -4.76 L 392.59 -4.76 Q 392.97 -5.17 393.49 -5.17 Q 394 -5.17 394.39 -4.76 L 394.39 -4.76 Q 394.8 -4.38 394.8 -3.88 L 394.8 -3.88 Q 394.8 -3.36 394.39 -2.96 L 394.39 -2.96 Q 392.73 -1.3 390.64 -0.43 Q 388.55 0.44 386.23 0.44 L 386.23 0.44 Q 383.82 0.44 381.72 -0.47 Q 379.62 -1.39 378.05 -2.95 Q 376.49 -4.52 375.58 -6.62 Q 374.66 -8.72 374.66 -11.13 Z M 438.24 -5.1 L 438.24 -5.1 Q 438.93 -5.1 439.43 -5.59 L 439.43 -5.59 L 442.56 -8.72 Q 442.81 -8.98 442.93 -9.29 Q 443.05 -9.6 443.05 -9.91 L 443.05 -9.91 Q 443.05 -10.24 442.93 -10.54 Q 442.81 -10.85 442.56 -11.1 L 442.56 -11.1 L 439.43 -14.23 Q 438.93 -14.73 438.24 -14.73 L 438.24 -14.73 Q 437.54 -14.73 437.05 -14.23 L 437.05 -14.23 L 433.92 -11.1 Q 433.66 -10.85 433.54 -10.54 Q 433.42 -10.24 433.42 -9.91 L 433.42 -9.91 Q 433.42 -9.6 433.54 -9.29 Q 433.66 -8.98 433.92 -8.72 L 433.92 -8.72 L 437.05 -5.59 Q 437.54 -5.1 438.24 -5.1 Z M 434.88 -8.11 L 435.45 -7.55 L 435.45 -12.19 L 434.88 -11.58 L 434.88 -8.11 Z M 434.37 -10.99 L 439.31 -6.06 L 439.71 -6.46 L 434.77 -11.38 L 434.37 -10.99 Z M 436.2 -6.83 L 436.76 -6.26 L 436.76 -13.58 L 436.2 -12.97 L 436.2 -6.83 Z M 438.24 -5.66 L 438.24 -5.66 Q 438.02 -5.66 437.82 -5.74 Q 437.61 -5.82 437.44 -5.99 L 437.44 -5.99 L 434.31 -9.12 Q 433.99 -9.44 433.99 -9.91 L 433.99 -9.91 Q 433.99 -10.38 434.31 -10.71 L 434.31 -10.71 L 437.44 -13.83 Q 437.61 -14 437.82 -14.08 Q 438.02 -14.16 438.24 -14.16 L 438.24 -14.16 Q 438.45 -14.16 438.65 -14.08 Q 438.86 -14 439.03 -13.83 L 439.03 -13.83 L 442.16 -10.71 Q 442.48 -10.38 442.48 -9.91 L 442.48 -9.91 Q 442.48 -9.44 442.16 -9.12 L 442.16 -9.12 L 439.03 -5.99 Q 438.86 -5.82 438.65 -5.74 Q 438.45 -5.66 438.24 -5.66 Z M 435.56 -12.19 L 440.52 -7.24 L 440.91 -7.63 L 435.96 -12.59 L 435.56 -12.19 Z M 437.95 -14.44 L 437.95 -5.38 L 438.52 -5.38 L 438.52 -14.44 L 437.95 -14.44 Z M 439.71 -13.57 L 439.71 -6.24 L 440.28 -6.85 L 440.28 -13 L 439.71 -13.57 Z M 436.76 -13.37 L 441.71 -8.44 L 442.1 -8.84 L 437.16 -13.76 L 436.76 -13.37 Z M 441.03 -12.28 L 441.03 -7.63 L 441.59 -8.24 L 441.59 -11.71 L 441.03 -12.28 Z" stroke-linecap="round" />
</g>
		<g transform="matrix(1 0 0 1 -0.04502929687487267 19.00659999999999)" id="tagline-15fa1fba-7c57-43f0-8638-c169efa15d6e-logo-path-1"  >
<path style="stroke: none; stroke-width: 0; stroke-dasharray: none; stroke-linecap: butt; stroke-dashoffset: 0; stroke-linejoin: miter; stroke-miterlimit: 4; fill: rgb(242,15,186); fill-rule: nonzero; opacity: 1;"  paint-order="stroke"  transform=" translate(-172.68, 11.1)" d="M 18.41 -5.1 L 18.41 -5.1 Q 19.1 -5.1 19.6 -5.59 L 19.6 -5.59 L 22.73 -8.72 Q 22.98 -8.98 23.1 -9.29 Q 23.22 -9.6 23.22 -9.91 L 23.22 -9.91 Q 23.22 -10.24 23.1 -10.54 Q 22.98 -10.85 22.73 -11.1 L 22.73 -11.1 L 19.6 -14.23 Q 19.1 -14.73 18.41 -14.73 L 18.41 -14.73 Q 17.71 -14.73 17.22 -14.23 L 17.22 -14.23 L 14.09 -11.1 Q 13.83 -10.85 13.71 -10.54 Q 13.59 -10.24 13.59 -9.91 L 13.59 -9.91 Q 13.59 -9.6 13.71 -9.29 Q 13.83 -8.98 14.09 -8.72 L 14.09 -8.72 L 17.22 -5.59 Q 17.71 -5.1 18.41 -5.1 Z M 15.05 -8.11 L 15.62 -7.55 L 15.62 -12.19 L 15.05 -11.58 L 15.05 -8.11 Z M 14.54 -10.99 L 19.48 -6.06 L 19.88 -6.46 L 14.94 -11.38 L 14.54 -10.99 Z M 16.37 -6.83 L 16.94 -6.26 L 16.94 -13.58 L 16.37 -12.97 L 16.37 -6.83 Z M 18.41 -5.66 L 18.41 -5.66 Q 18.2 -5.66 17.99 -5.74 Q 17.79 -5.82 17.62 -5.99 L 17.62 -5.99 L 14.49 -9.12 Q 14.16 -9.44 14.16 -9.91 L 14.16 -9.91 Q 14.16 -10.38 14.49 -10.71 L 14.49 -10.71 L 17.62 -13.83 Q 17.79 -14 17.99 -14.08 Q 18.2 -14.16 18.41 -14.16 L 18.41 -14.16 Q 18.62 -14.16 18.83 -14.08 Q 19.03 -14 19.2 -13.83 L 19.2 -13.83 L 22.33 -10.71 Q 22.66 -10.38 22.66 -9.91 L 22.66 -9.91 Q 22.66 -9.44 22.33 -9.12 L 22.33 -9.12 L 19.2 -5.99 Q 19.03 -5.82 18.83 -5.74 Q 18.62 -5.66 18.41 -5.66 Z M 15.73 -12.19 L 20.69 -7.24 L 21.08 -7.63 L 16.13 -12.59 L 15.73 -12.19 Z M 18.13 -14.44 L 18.13 -5.38 L 18.69 -5.38 L 18.69 -14.44 L 18.13 -14.44 Z M 19.88 -13.57 L 19.88 -6.24 L 20.45 -6.85 L 20.45 -13 L 19.88 -13.57 Z M 16.94 -13.37 L 21.88 -8.44 L 22.27 -8.84 L 17.33 -13.76 L 16.94 -13.37 Z M 21.2 -12.28 L 21.2 -7.63 L 21.76 -8.24 L 21.76 -11.71 L 21.2 -12.28 Z M 62.5 -0.84 L 62.5 -0.84 L 62.5 -0.89 L 62.5 -0.96 L 62.5 -21.17 Q 62.5 -21.69 62.87 -22.07 Q 63.25 -22.44 63.8 -22.44 L 63.8 -22.44 L 73.78 -22.44 Q 74.34 -22.44 74.71 -22.07 Q 75.09 -21.69 75.09 -21.17 L 75.09 -21.17 Q 75.09 -20.62 74.71 -20.26 Q 74.34 -19.9 73.78 -19.9 L 73.78 -19.9 L 65.08 -19.9 L 65.08 -12.5 L 72.41 -12.5 Q 72.93 -12.5 73.32 -12.14 Q 73.7 -11.77 73.7 -11.23 L 73.7 -11.23 Q 73.7 -10.71 73.32 -10.32 Q 72.93 -9.94 72.41 -9.94 L 72.41 -9.94 L 65.08 -9.94 L 65.08 -2.15 L 73.78 -2.15 Q 74.34 -2.15 74.71 -1.77 Q 75.09 -1.39 75.09 -0.84 L 75.09 -0.84 Q 75.09 -0.31 74.71 0.06 Q 74.34 0.44 73.78 0.44 L 73.78 0.44 L 63.8 0.44 Q 63.25 0.44 62.87 0.06 Q 62.5 -0.33 62.5 -0.84 Z M 84.86 -1.33 L 84.86 -1.33 L 84.86 -21.17 Q 84.86 -21.69 85.23 -22.07 Q 85.61 -22.44 86.16 -22.44 L 86.16 -22.44 L 93.15 -22.44 Q 95.45 -22.44 97.33 -21.46 Q 99.21 -20.48 100.54 -18.88 Q 101.88 -17.29 102.61 -15.26 Q 103.33 -13.23 103.33 -11.13 L 103.33 -11.13 Q 103.33 -8.55 102.45 -6.42 Q 101.56 -4.29 100.13 -2.77 Q 98.69 -1.25 96.86 -0.4 Q 95.04 0.44 93.18 0.44 L 93.18 0.44 L 86.04 0.44 Q 85.69 0.44 85.37 0.23 Q 85.05 0.03 84.91 -0.28 L 84.91 -0.28 Q 84.77 -0.55 84.77 -0.85 L 84.77 -0.85 Q 84.77 -1.08 84.86 -1.33 Z M 87.43 -19.9 L 87.43 -2.12 L 93.18 -2.12 Q 94.84 -2.12 96.21 -2.92 Q 97.59 -3.71 98.6 -4.98 Q 99.62 -6.26 100.18 -7.89 Q 100.74 -9.52 100.74 -11.13 L 100.74 -11.13 Q 100.74 -12.79 100.2 -14.37 Q 99.65 -15.94 98.65 -17.18 Q 97.64 -18.41 96.24 -19.15 Q 94.84 -19.9 93.15 -19.9 L 93.15 -19.9 L 87.43 -19.9 Z M 114.05 -8.38 L 114.05 -8.38 L 114.05 -21.17 Q 114.05 -21.69 114.43 -22.07 Q 114.8 -22.44 115.35 -22.44 L 115.35 -22.44 Q 115.88 -22.44 116.25 -22.07 Q 116.63 -21.69 116.63 -21.17 L 116.63 -21.17 L 116.63 -8.38 Q 116.63 -7.08 117.12 -5.95 Q 117.62 -4.81 118.46 -3.97 Q 119.3 -3.13 120.44 -2.64 Q 121.58 -2.15 122.87 -2.15 L 122.87 -2.15 Q 124.18 -2.15 125.3 -2.64 Q 126.43 -3.13 127.28 -3.97 Q 128.14 -4.81 128.64 -5.96 Q 129.13 -7.11 129.13 -8.38 L 129.13 -8.38 L 129.13 -21.17 Q 129.13 -21.69 129.51 -22.07 Q 129.88 -22.44 130.41 -22.44 L 130.41 -22.44 Q 130.96 -22.44 131.33 -22.07 Q 131.71 -21.69 131.71 -21.17 L 131.71 -21.17 L 131.71 -8.38 Q 131.71 -6.56 131.02 -4.95 Q 130.32 -3.34 129.12 -2.15 Q 127.91 -0.96 126.31 -0.26 Q 124.7 0.44 122.87 0.44 L 122.87 0.44 Q 121.05 0.44 119.45 -0.26 Q 117.85 -0.96 116.64 -2.15 Q 115.44 -3.34 114.75 -4.95 Q 114.05 -6.56 114.05 -8.38 Z M 142.44 -11.13 L 142.44 -11.13 Q 142.44 -13.51 143.35 -15.58 Q 144.27 -17.66 145.83 -19.18 Q 147.4 -20.7 149.5 -21.57 Q 151.6 -22.44 154.01 -22.44 L 154.01 -22.44 Q 156.33 -22.44 158.42 -21.59 Q 160.51 -20.73 162.17 -19.09 L 162.17 -19.09 Q 162.58 -18.68 162.58 -18.17 L 162.58 -18.17 Q 162.58 -17.63 162.17 -17.26 L 162.17 -17.26 Q 161.78 -16.88 161.26 -16.88 Q 160.74 -16.88 160.37 -17.26 L 160.37 -17.26 Q 159.06 -18.56 157.44 -19.23 Q 155.81 -19.9 154.01 -19.9 L 154.01 -19.9 Q 152.13 -19.9 150.49 -19.22 Q 148.85 -18.54 147.64 -17.36 Q 146.42 -16.19 145.72 -14.59 Q 145.02 -13 145.02 -11.13 L 145.02 -11.13 Q 145.02 -9.27 145.73 -7.64 Q 146.45 -6 147.67 -4.79 Q 148.88 -3.57 150.52 -2.86 Q 152.15 -2.15 154.01 -2.15 L 154.01 -2.15 Q 155.81 -2.15 157.43 -2.82 Q 159.05 -3.48 160.37 -4.76 L 160.37 -4.76 Q 160.75 -5.17 161.27 -5.17 Q 161.78 -5.17 162.17 -4.76 L 162.17 -4.76 Q 162.58 -4.38 162.58 -3.88 L 162.58 -3.88 Q 162.58 -3.36 162.17 -2.96 L 162.17 -2.96 Q 160.51 -1.3 158.42 -0.43 Q 156.33 0.44 154.01 0.44 L 154.01 0.44 Q 151.6 0.44 149.5 -0.47 Q 147.4 -1.39 145.83 -2.95 Q 144.27 -4.52 143.35 -6.62 Q 142.44 -8.72 142.44 -11.13 Z M 171.47 -0.37 L 171.47 -0.37 Q 171.37 -0.59 171.37 -0.84 L 171.37 -0.84 Q 171.37 -1.1 171.49 -1.36 L 171.49 -1.36 L 174.1 -7.53 L 180.22 -21.86 Q 180.36 -22.25 180.68 -22.44 Q 181.01 -22.64 181.41 -22.64 L 181.41 -22.64 Q 181.79 -22.64 182.11 -22.44 Q 182.43 -22.25 182.57 -21.86 L 182.57 -21.86 Q 184.78 -16.69 186.95 -11.61 Q 189.12 -6.53 191.33 -1.36 L 191.33 -1.36 Q 191.43 -1.1 191.43 -0.86 Q 191.43 -0.62 191.33 -0.37 L 191.33 -0.37 Q 191.14 0.13 190.64 0.33 L 190.64 0.33 Q 190.41 0.44 190.14 0.44 L 190.14 0.44 Q 189.76 0.44 189.43 0.23 Q 189.1 0.03 188.95 -0.35 L 188.95 -0.35 L 186.66 -5.75 L 176.14 -5.75 L 173.85 -0.35 Q 173.65 0.14 173.15 0.34 L 173.15 0.34 Q 172.91 0.44 172.68 0.44 L 172.68 0.44 L 172.16 0.33 Q 171.66 0.13 171.47 -0.37 Z M 181.41 -18.07 L 177.24 -8.33 L 185.56 -8.33 L 181.41 -18.07 Z M 196.88 -21.17 L 196.88 -21.17 Q 196.88 -21.69 197.26 -22.07 Q 197.65 -22.44 198.16 -22.44 L 198.16 -22.44 L 210.14 -22.44 Q 210.66 -22.44 211.03 -22.07 Q 211.41 -21.69 211.41 -21.17 L 211.41 -21.17 Q 211.41 -20.62 211.03 -20.26 Q 210.66 -19.9 210.14 -19.9 L 210.14 -19.9 L 205.43 -19.9 L 205.43 -0.84 Q 205.43 -0.31 205.06 0.06 Q 204.68 0.44 204.16 0.44 L 204.16 0.44 Q 203.61 0.44 203.23 0.06 Q 202.86 -0.33 202.86 -0.84 L 202.86 -0.84 L 202.86 -19.9 L 198.16 -19.9 Q 197.63 -19.9 197.26 -20.26 Q 196.88 -20.62 196.88 -21.17 Z M 220.54 -0.84 L 220.54 -0.84 L 220.54 -21.17 Q 220.54 -21.69 220.92 -22.07 Q 221.29 -22.44 221.84 -22.44 L 221.84 -22.44 Q 222.37 -22.44 222.74 -22.07 Q 223.12 -21.69 223.12 -21.17 L 223.12 -21.17 L 223.12 -0.84 Q 223.12 -0.31 222.74 0.06 Q 222.37 0.44 221.84 0.44 L 221.84 0.44 Q 221.29 0.44 220.92 0.06 Q 220.54 -0.33 220.54 -0.84 Z M 233.85 -11.02 L 233.85 -11.02 Q 233.85 -13.37 234.75 -15.46 Q 235.65 -17.54 237.2 -19.09 Q 238.75 -20.65 240.84 -21.54 Q 242.93 -22.44 245.31 -22.44 L 245.31 -22.44 Q 247.66 -22.44 249.74 -21.54 Q 251.83 -20.65 253.38 -19.09 Q 254.93 -17.54 255.83 -15.46 Q 256.73 -13.37 256.73 -11.02 L 256.73 -11.02 Q 256.73 -8.64 255.83 -6.55 Q 254.93 -4.46 253.38 -2.91 Q 251.83 -1.36 249.74 -0.46 Q 247.66 0.44 245.31 0.44 L 245.31 0.44 Q 242.93 0.44 240.84 -0.46 Q 238.75 -1.36 237.2 -2.91 Q 235.65 -4.46 234.75 -6.55 Q 233.85 -8.64 233.85 -11.02 Z M 236.4 -11.02 L 236.4 -11.02 Q 236.4 -9.19 237.09 -7.57 Q 237.79 -5.95 239 -4.73 Q 240.22 -3.51 241.85 -2.82 Q 243.48 -2.12 245.31 -2.12 L 245.31 -2.12 Q 247.13 -2.12 248.75 -2.82 Q 250.37 -3.51 251.58 -4.73 Q 252.78 -5.95 253.48 -7.57 Q 254.18 -9.19 254.18 -11.02 L 254.18 -11.02 Q 254.18 -12.84 253.48 -14.47 Q 252.78 -16.1 251.58 -17.3 Q 250.37 -18.51 248.75 -19.2 Q 247.13 -19.9 245.31 -19.9 L 245.31 -19.9 Q 243.48 -19.9 241.85 -19.2 Q 240.22 -18.51 239 -17.3 Q 237.79 -16.1 237.09 -14.47 Q 236.4 -12.84 236.4 -11.02 Z M 267.48 -0.84 L 267.48 -0.84 L 267.48 -21.17 Q 267.48 -21.69 267.85 -22.07 Q 268.23 -22.44 268.75 -22.44 L 268.75 -22.44 Q 269.47 -22.44 269.86 -21.86 L 269.86 -21.86 L 280.32 -5.28 L 280.32 -21.17 Q 280.32 -21.69 280.68 -22.07 Q 281.04 -22.44 281.6 -22.44 L 281.6 -22.44 Q 282.12 -22.44 282.49 -22.07 Q 282.87 -21.69 282.87 -21.17 L 282.87 -21.17 L 282.87 -0.84 Q 282.87 -0.31 282.49 0.06 Q 282.12 0.44 281.6 0.44 L 281.6 0.44 Q 280.87 0.44 280.51 -0.17 L 280.51 -0.17 L 270.03 -16.77 L 270.03 -0.84 Q 270.03 -0.31 269.67 0.06 Q 269.3 0.44 268.75 0.44 L 268.75 0.44 Q 268.23 0.44 267.85 0.06 Q 267.48 -0.33 267.48 -0.84 Z M 326.96 -5.1 L 326.96 -5.1 Q 327.65 -5.1 328.15 -5.59 L 328.15 -5.59 L 331.28 -8.72 Q 331.53 -8.98 331.65 -9.29 Q 331.77 -9.6 331.77 -9.91 L 331.77 -9.91 Q 331.77 -10.24 331.65 -10.54 Q 331.53 -10.85 331.28 -11.1 L 331.28 -11.1 L 328.15 -14.23 Q 327.65 -14.73 326.96 -14.73 L 326.96 -14.73 Q 326.27 -14.73 325.77 -14.23 L 325.77 -14.23 L 322.64 -11.1 Q 322.39 -10.85 322.27 -10.54 Q 322.15 -10.24 322.15 -9.91 L 322.15 -9.91 Q 322.15 -9.6 322.27 -9.29 Q 322.39 -8.98 322.64 -8.72 L 322.64 -8.72 L 325.77 -5.59 Q 326.27 -5.1 326.96 -5.1 Z M 323.6 -8.11 L 324.17 -7.55 L 324.17 -12.19 L 323.6 -11.58 L 323.6 -8.11 Z M 323.09 -10.99 L 328.04 -6.06 L 328.43 -6.46 L 323.49 -11.38 L 323.09 -10.99 Z M 324.92 -6.83 L 325.49 -6.26 L 325.49 -13.58 L 324.92 -12.97 L 324.92 -6.83 Z M 326.96 -5.66 L 326.96 -5.66 Q 326.75 -5.66 326.54 -5.74 Q 326.34 -5.82 326.17 -5.99 L 326.17 -5.99 L 323.04 -9.12 Q 322.71 -9.44 322.71 -9.91 L 322.71 -9.91 Q 322.71 -10.38 323.04 -10.71 L 323.04 -10.71 L 326.17 -13.83 Q 326.34 -14 326.54 -14.08 Q 326.75 -14.16 326.96 -14.16 L 326.96 -14.16 Q 327.17 -14.16 327.38 -14.08 Q 327.58 -14 327.75 -13.83 L 327.75 -13.83 L 330.88 -10.71 Q 331.21 -10.38 331.21 -9.91 L 331.21 -9.91 Q 331.21 -9.44 330.88 -9.12 L 330.88 -9.12 L 327.75 -5.99 Q 327.58 -5.82 327.38 -5.74 Q 327.17 -5.66 326.96 -5.66 Z M 324.28 -12.19 L 329.24 -7.24 L 329.64 -7.63 L 324.68 -12.59 L 324.28 -12.19 Z M 326.68 -14.44 L 326.68 -5.38 L 327.24 -5.38 L 327.24 -14.44 L 326.68 -14.44 Z M 328.43 -13.57 L 328.43 -6.24 L 329 -6.85 L 329 -13 L 328.43 -13.57 Z M 325.49 -13.37 L 330.43 -8.44 L 330.83 -8.84 L 325.88 -13.76 L 325.49 -13.37 Z M 329.75 -12.28 L 329.75 -7.63 L 330.32 -8.24 L 330.32 -11.71 L 329.75 -12.28 Z" stroke-linecap="round" />
</g>
</g>
</g>
</svg>