<!-- icon666.com - MILLIONS vector ICONS FREE --><svg viewBox="-21 -21 682.66669 682.66669" xmlns="http://www.w3.org/2000/svg"><path d="m0 132.976562v374.046876c0 73.441406 59.535156 132.976562 132.976562 132.976562h374.046876c73.441406 0 132.976562-59.535156 132.976562-132.976562v-374.046876c0-73.441406-59.535156-132.976562-132.976562-132.976562h-374.046876c-73.441406 0-132.976562 59.535156-132.976562 132.976562zm387.792969 368.359376c-157.855469 54.464843-303.59375-91.273438-249.128907-249.128907 18.351563-53.203125 60.335938-95.191406 113.539063-113.542969 157.859375-54.464843 303.597656 91.273438 249.132813 249.132813-18.351563 53.203125-60.335938 95.1875-113.542969 113.539063zm154.28125-374.859376c-2.511719 13.152344-13.394531 20.804688-24.652344 20.804688-6.851563 0-13.835937-2.828125-19.183594-8.964844-.472656-.542968-.914062-1.125-1.304687-1.730468-5.519532-8.4375-5.691406-18.460938-1-26.589844 3.320312-5.753906 8.679687-9.863282 15.097656-11.582032 6.410156-1.726562 13.113281-.839843 18.859375 2.484376 8.132813 4.6875 12.992187 13.457031 12.4375 23.511718-.039063.6875-.121094 1.386719-.253906 2.066406zm0 0" fill="#000000" style="fill: rgb(225, 220, 18);"></path><path d="m320 164.523438c-85.734375 0-155.476562 69.742187-155.476562 155.476562s69.742187 155.476562 155.476562 155.476562 155.476562-69.742187 155.476562-155.476562-69.742187-155.476562-155.476562-155.476562zm0 0" fill="#000000" style="fill: rgb(225, 220, 18);"></path></svg>